<svg width="196" height="33" viewBox="0 0 196 33" fill="none" xmlns="http://www.w3.org/2000/svg">
<path d="M0.963669 20.3138H6.03234C6.03234 21.343 6.13526 21.6775 6.54693 21.9348C7.03578 22.2435 7.60183 22.295 11.2811 22.295C16.8901 22.295 16.8901 22.295 16.8901 20.777C16.8901 19.7478 16.5042 19.4905 14.8318 19.4648L10.7151 19.3104L7.93631 19.1817L6.54693 19.1303C2.30159 19.0016 1.11804 17.921 1.11804 14.1388C1.11804 10.8712 2.0443 9.4046 4.41139 8.89002C5.41484 8.68418 7.78193 8.58127 11.8986 8.58127C16.8901 8.58127 18.6912 8.81283 19.9004 9.63617C20.9296 10.3309 21.3413 11.4115 21.3413 13.4441C21.3413 13.547 21.3413 13.9072 21.3155 14.2417H16.2726C16.2211 13.2897 16.144 13.0582 15.758 12.8266C15.3206 12.5693 14.6774 12.5178 10.9724 12.5178C6.54693 12.5178 6.18672 12.6208 6.18672 13.8815C6.18672 14.5247 6.41828 14.8592 6.95859 14.9879C7.42172 15.1165 8.83683 15.1937 12.4647 15.2966C18.1251 15.4767 19.2315 15.6054 20.3378 16.3001C21.5214 17.0719 21.9588 18.2298 21.9588 20.6226C21.9588 23.6072 21.2384 25.0737 19.463 25.7427C18.4339 26.1286 16.2726 26.2573 11.1525 26.2573C5.82651 26.2573 3.74243 26.0257 2.53316 25.2539C1.34961 24.5077 0.963669 23.5043 0.963669 21.1372V20.3138ZM23.7928 8.83856H29.2731V14.9879H41.0829V8.83856H46.5632V26H41.0829V19.7992H29.2731V26H23.7928V8.83856ZM48.9693 8.83856H54.4497V26H48.9693V8.83856ZM56.859 26V8.83856H69.492C75.4098 8.83856 75.4098 8.83856 76.5161 9.50752C77.8283 10.3051 78.2143 11.4372 78.2143 14.4218C78.2143 16.969 77.957 17.9467 77.0307 18.6414C76.5419 19.0274 76.053 19.2075 75.0238 19.3618C77.674 19.6706 78.1371 20.4425 78.0342 24.4048V26H72.8883V25.0995C72.8883 23.1698 72.7854 22.5523 72.3737 22.1149C72.0135 21.7032 71.6276 21.6517 69.4663 21.6517H62.082V26H56.859ZM62.082 17.355H69.4406C72.065 17.3035 72.065 17.3035 72.4252 17.0462C72.8368 16.7889 72.9912 16.2743 72.9912 15.1937C72.9912 14.0359 72.7854 13.547 72.2451 13.3155C71.8849 13.1611 71.8077 13.1611 69.4406 13.1354H62.082V17.355ZM79.3186 8.83856H100.082V13.2125H92.4406V26H86.9602V13.2125H79.3186V8.83856ZM101.282 26V8.83856H113.658C118.032 8.83856 118.624 8.86429 120.09 9.17304C121.788 9.50752 122.921 10.4852 123.435 12.0805C123.821 13.2897 123.924 14.3704 123.924 17.1749C123.924 21.6517 123.538 23.4013 122.277 24.5592C120.965 25.7427 119.447 26 113.658 26H101.282ZM106.428 21.626H113.709C118.444 21.626 118.778 21.3687 118.778 17.4836C118.778 15.3738 118.598 14.4218 118.083 13.8558C117.543 13.2383 116.848 13.1354 113.658 13.1354H106.428V21.626ZM125.981 26V8.83856H138.614C144.532 8.83856 144.532 8.83856 145.638 9.50752C146.951 10.3051 147.337 11.4372 147.337 14.4218C147.337 16.969 147.079 17.9467 146.153 18.6414C145.664 19.0274 145.175 19.2075 144.146 19.3618C146.796 19.6706 147.259 20.4425 147.157 24.4048V26H142.011V25.0995C142.011 23.1698 141.908 22.5523 141.496 22.1149C141.136 21.7032 140.75 21.6517 138.589 21.6517H131.204V26H125.981ZM131.204 17.355H138.563C141.187 17.3035 141.187 17.3035 141.548 17.0462C141.959 16.7889 142.114 16.2743 142.114 15.1937C142.114 14.0359 141.908 13.547 141.367 13.3155C141.007 13.1611 140.93 13.1611 138.563 13.1354H131.204V17.355ZM160.672 8.58127C167.851 8.58127 169.446 8.76137 170.758 9.76481C172.07 10.7683 172.456 12.4921 172.456 17.4064C172.456 22.3464 172.07 24.0703 170.758 25.0737C169.446 26.0772 167.825 26.2573 160.724 26.2573C153.494 26.2573 151.898 26.0772 150.586 25.0737C149.248 24.0446 148.888 22.3464 148.888 17.3035C148.888 12.5178 149.274 10.7683 150.586 9.76481C151.898 8.76137 153.494 8.58127 160.672 8.58127ZM160.672 13.0324C155.526 13.0324 155.037 13.1096 154.523 14.1131C154.214 14.7048 154.111 15.6826 154.111 17.8695C154.111 20.0051 154.265 20.6998 154.883 21.1886C155.578 21.7289 156.401 21.8061 160.724 21.8061C164.917 21.8061 165.766 21.7032 166.461 21.1886C167.053 20.7255 167.233 19.9793 167.233 17.8953C167.233 15.3481 167.079 14.3704 166.616 13.8043C166.024 13.1096 165.458 13.0324 160.672 13.0324ZM174.525 26V8.83856H186.284C189.525 8.83856 189.989 8.86429 190.941 8.99294C194.182 9.48179 195.109 10.8712 195.109 15.2709C195.109 19.0788 194.414 20.5711 192.356 21.3173C191.198 21.7032 190.04 21.8061 186.335 21.8061H179.748V26H174.525ZM179.748 17.5093H186.284C188.702 17.4836 188.805 17.4836 189.242 17.2263C189.731 16.9176 189.886 16.4544 189.886 15.2709C189.886 14.0359 189.654 13.5213 188.985 13.2897C188.625 13.1611 188.573 13.1611 186.284 13.1354H179.748V17.5093Z" fill="#EBEBEB"/>
<path d="M177.101 29.2879L183.251 24.572H170.951L177.101 29.2879Z" fill="#EBEBEB"/>
</svg>
